<?xml version="1.0" encoding="utf-8"?>
<svg xmlns="http://www.w3.org/2000/svg" xmlns:xlink="http://www.w3.org/1999/xlink" width="375" zoomAndPan="magnify" viewBox="0 168.75 375 45" height="45" preserveAspectRatio="xMidYMid meet" version="1.0">
  <defs>
    <g>
      <g id="id1" />
      <g id="id2" />
    </g>
  </defs>
  <g fill="rgb(100%, 100%, 100%)" fill-opacity="1">
    <g transform="translate(109.576718, 202.504249)">
      <g>
        <path d="M 10.609375 -5.828125 L 16.03125 -23.25 L 20.28125 -23.25 L 10.9375 3.59375 C 9.488281 7.457031 7.191406 9.390625 4.046875 9.390625 L 3.28125 9.328125 L 1.8125 9.046875 L 1.8125 5.828125 L 2.875 5.90625 C 4.226562 5.90625 5.28125 5.632812 6.03125 5.09375 C 6.78125 4.550781 7.398438 3.554688 7.890625 2.109375 L 8.765625 -0.265625 L 0.46875 -23.25 L 4.8125 -23.25 Z M 10.609375 -5.828125 " />
      </g>
    </g>
  </g>
  <g fill="rgb(100%, 100%, 100%)" fill-opacity="1">
    <g transform="translate(132.371358, 202.504249)">
      <g>
        <path d="M 17.359375 0 C 17.128906 -0.457031 16.941406 -1.273438 16.796875 -2.453125 C 14.953125 -0.523438 12.75 0.4375 10.1875 0.4375 C 7.894531 0.4375 6.015625 -0.207031 4.546875 -1.5 C 3.078125 -2.800781 2.34375 -4.453125 2.34375 -6.453125 C 2.34375 -8.867188 3.257812 -10.742188 5.09375 -12.078125 C 6.9375 -13.421875 9.53125 -14.09375 12.875 -14.09375 L 16.734375 -14.09375 L 16.734375 -15.921875 C 16.734375 -17.304688 16.316406 -18.410156 15.484375 -19.234375 C 14.660156 -20.054688 13.4375 -20.46875 11.8125 -20.46875 C 10.394531 -20.46875 9.207031 -20.109375 8.25 -19.390625 C 7.289062 -18.679688 6.8125 -17.816406 6.8125 -16.796875 L 2.8125 -16.796875 C 2.8125 -17.960938 3.222656 -19.082031 4.046875 -20.15625 C 4.867188 -21.238281 5.984375 -22.09375 7.390625 -22.71875 C 8.804688 -23.351562 10.359375 -23.671875 12.046875 -23.671875 C 14.734375 -23.671875 16.832031 -23 18.34375 -21.65625 C 19.863281 -20.320312 20.65625 -18.484375 20.71875 -16.140625 L 20.71875 -5.4375 C 20.71875 -3.300781 20.988281 -1.601562 21.53125 -0.34375 L 21.53125 0 Z M 10.765625 -3.03125 C 12.015625 -3.03125 13.195312 -3.351562 14.3125 -4 C 15.425781 -4.644531 16.234375 -5.484375 16.734375 -6.515625 L 16.734375 -11.28125 L 13.625 -11.28125 C 8.75 -11.28125 6.3125 -9.851562 6.3125 -7 C 6.3125 -5.757812 6.726562 -4.785156 7.5625 -4.078125 C 8.394531 -3.378906 9.460938 -3.03125 10.765625 -3.03125 Z M 10.765625 -3.03125 " />
      </g>
    </g>
  </g>
  <g fill="rgb(100%, 100%, 100%)" fill-opacity="1">
    <g transform="translate(158.280677, 202.504249)">
      <g>
        <path d="M 7.328125 0 L 3.359375 0 L 3.359375 -33 L 7.328125 -33 Z M 7.328125 0 " />
      </g>
    </g>
  </g>
  <g fill="rgb(100%, 100%, 100%)" fill-opacity="1">
    <g transform="translate(170.936491, 202.504249)">
      <g>
        <path d="M 12.65625 0.4375 C 9.5 0.4375 6.929688 -0.597656 4.953125 -2.671875 C 2.984375 -4.742188 2 -7.515625 2 -10.984375 L 2 -11.703125 C 2 -14.015625 2.4375 -16.078125 3.3125 -17.890625 C 4.195312 -19.703125 5.429688 -21.117188 7.015625 -22.140625 C 8.597656 -23.160156 10.3125 -23.671875 12.15625 -23.671875 C 15.175781 -23.671875 17.523438 -22.675781 19.203125 -20.6875 C 20.878906 -18.695312 21.71875 -15.847656 21.71875 -12.140625 L 21.71875 -10.484375 L 5.96875 -10.484375 C 6.03125 -8.191406 6.703125 -6.335938 7.984375 -4.921875 C 9.265625 -3.515625 10.894531 -2.8125 12.875 -2.8125 C 14.269531 -2.8125 15.453125 -3.097656 16.421875 -3.671875 C 17.398438 -4.242188 18.257812 -5.003906 19 -5.953125 L 21.421875 -4.0625 C 19.472656 -1.0625 16.550781 0.4375 12.65625 0.4375 Z M 12.15625 -20.40625 C 10.550781 -20.40625 9.203125 -19.820312 8.109375 -18.65625 C 7.023438 -17.488281 6.359375 -15.851562 6.109375 -13.75 L 17.75 -13.75 L 17.75 -14.046875 C 17.632812 -16.066406 17.085938 -17.628906 16.109375 -18.734375 C 15.140625 -19.847656 13.820312 -20.40625 12.15625 -20.40625 Z M 12.15625 -20.40625 " />
      </g>
    </g>
  </g>
  <g fill="rgb(100%, 100%, 100%)" fill-opacity="1">
    <g transform="translate(196.222874, 202.504249)">
      <g />
    </g>
  </g>
  <g fill="rgb(100%, 100%, 100%)" fill-opacity="1">
    <g transform="translate(209.093494, 202.504249)">
      <g>
        <path d="M 17.359375 0 C 17.128906 -0.457031 16.941406 -1.273438 16.796875 -2.453125 C 14.953125 -0.523438 12.75 0.4375 10.1875 0.4375 C 7.894531 0.4375 6.015625 -0.207031 4.546875 -1.5 C 3.078125 -2.800781 2.34375 -4.453125 2.34375 -6.453125 C 2.34375 -8.867188 3.257812 -10.742188 5.09375 -12.078125 C 6.9375 -13.421875 9.53125 -14.09375 12.875 -14.09375 L 16.734375 -14.09375 L 16.734375 -15.921875 C 16.734375 -17.304688 16.316406 -18.410156 15.484375 -19.234375 C 14.660156 -20.054688 13.4375 -20.46875 11.8125 -20.46875 C 10.394531 -20.46875 9.207031 -20.109375 8.25 -19.390625 C 7.289062 -18.679688 6.8125 -17.816406 6.8125 -16.796875 L 2.8125 -16.796875 C 2.8125 -17.960938 3.222656 -19.082031 4.046875 -20.15625 C 4.867188 -21.238281 5.984375 -22.09375 7.390625 -22.71875 C 8.804688 -23.351562 10.359375 -23.671875 12.046875 -23.671875 C 14.734375 -23.671875 16.832031 -23 18.34375 -21.65625 C 19.863281 -20.320312 20.65625 -18.484375 20.71875 -16.140625 L 20.71875 -5.4375 C 20.71875 -3.300781 20.988281 -1.601562 21.53125 -0.34375 L 21.53125 0 Z M 10.765625 -3.03125 C 12.015625 -3.03125 13.195312 -3.351562 14.3125 -4 C 15.425781 -4.644531 16.234375 -5.484375 16.734375 -6.515625 L 16.734375 -11.28125 L 13.625 -11.28125 C 8.75 -11.28125 6.3125 -9.851562 6.3125 -7 C 6.3125 -5.757812 6.726562 -4.785156 7.5625 -4.078125 C 8.394531 -3.378906 9.460938 -3.03125 10.765625 -3.03125 Z M 10.765625 -3.03125 " />
      </g>
    </g>
  </g>
  <g fill="rgb(100%, 100%, 100%)" fill-opacity="1">
    <g transform="translate(235.002813, 202.504249)">
      <g>
        <path d="M 14.25 -19.6875 C 13.644531 -19.78125 12.992188 -19.828125 12.296875 -19.828125 C 9.679688 -19.828125 7.910156 -18.71875 6.984375 -16.5 L 6.984375 0 L 3.015625 0 L 3.015625 -23.25 L 6.875 -23.25 L 6.9375 -20.5625 C 8.238281 -22.632812 10.085938 -23.671875 12.484375 -23.671875 C 13.253906 -23.671875 13.84375 -23.570312 14.25 -23.375 Z M 14.25 -19.6875 " />
      </g>
    </g>
  </g>
  <g fill="rgb(100%, 100%, 100%)" fill-opacity="1">
    <g transform="translate(251.868817, 202.504249)">
      <g>
        <path d="M 17.359375 0 C 17.128906 -0.457031 16.941406 -1.273438 16.796875 -2.453125 C 14.953125 -0.523438 12.75 0.4375 10.1875 0.4375 C 7.894531 0.4375 6.015625 -0.207031 4.546875 -1.5 C 3.078125 -2.800781 2.34375 -4.453125 2.34375 -6.453125 C 2.34375 -8.867188 3.257812 -10.742188 5.09375 -12.078125 C 6.9375 -13.421875 9.53125 -14.09375 12.875 -14.09375 L 16.734375 -14.09375 L 16.734375 -15.921875 C 16.734375 -17.304688 16.316406 -18.410156 15.484375 -19.234375 C 14.660156 -20.054688 13.4375 -20.46875 11.8125 -20.46875 C 10.394531 -20.46875 9.207031 -20.109375 8.25 -19.390625 C 7.289062 -18.679688 6.8125 -17.816406 6.8125 -16.796875 L 2.8125 -16.796875 C 2.8125 -17.960938 3.222656 -19.082031 4.046875 -20.15625 C 4.867188 -21.238281 5.984375 -22.09375 7.390625 -22.71875 C 8.804688 -23.351562 10.359375 -23.671875 12.046875 -23.671875 C 14.734375 -23.671875 16.832031 -23 18.34375 -21.65625 C 19.863281 -20.320312 20.65625 -18.484375 20.71875 -16.140625 L 20.71875 -5.4375 C 20.71875 -3.300781 20.988281 -1.601562 21.53125 -0.34375 L 21.53125 0 Z M 10.765625 -3.03125 C 12.015625 -3.03125 13.195312 -3.351562 14.3125 -4 C 15.425781 -4.644531 16.234375 -5.484375 16.734375 -6.515625 L 16.734375 -11.28125 L 13.625 -11.28125 C 8.75 -11.28125 6.3125 -9.851562 6.3125 -7 C 6.3125 -5.757812 6.726562 -4.785156 7.5625 -4.078125 C 8.394531 -3.378906 9.460938 -3.03125 10.765625 -3.03125 Z M 10.765625 -3.03125 " />
      </g>
    </g>
  </g>
  <g fill="rgb(100%, 100%, 100%)" fill-opacity="1">
    <g transform="translate(277.778136, 202.504249)">
      <g>
        <path d="M 17.359375 -2.296875 C 15.816406 -0.472656 13.546875 0.4375 10.546875 0.4375 C 8.066406 0.4375 6.175781 -0.28125 4.875 -1.71875 C 3.582031 -3.164062 2.929688 -5.300781 2.921875 -8.125 L 2.921875 -23.25 L 6.890625 -23.25 L 6.890625 -8.234375 C 6.890625 -4.703125 8.320312 -2.9375 11.1875 -2.9375 C 14.226562 -2.9375 16.25 -4.070312 17.25 -6.34375 L 17.25 -23.25 L 21.234375 -23.25 L 21.234375 0 L 17.453125 0 Z M 17.359375 -2.296875 " />
      </g>
    </g>
  </g>
  <g fill="rgb(100%, 100%, 100%)" fill-opacity="1">
    <g transform="translate(304.009675, 202.504249)">
      <g>
        <path d="M 7.109375 -23.25 L 7.109375 2.6875 C 7.109375 7.15625 5.082031 9.390625 1.03125 9.390625 C 0.15625 9.390625 -0.648438 9.257812 -1.390625 9 L -1.390625 5.828125 C -0.929688 5.941406 -0.332031 6 0.40625 6 C 1.289062 6 1.96875 5.757812 2.4375 5.28125 C 2.90625 4.800781 3.140625 3.960938 3.140625 2.765625 L 3.140625 -23.25 Z M 2.734375 -29.40625 C 2.734375 -30.039062 2.925781 -30.582031 3.3125 -31.03125 C 3.707031 -31.488281 4.285156 -31.71875 5.046875 -31.71875 C 5.816406 -31.71875 6.398438 -31.492188 6.796875 -31.046875 C 7.203125 -30.597656 7.40625 -30.050781 7.40625 -29.40625 C 7.40625 -28.769531 7.203125 -28.234375 6.796875 -27.796875 C 6.398438 -27.367188 5.816406 -27.15625 5.046875 -27.15625 C 4.273438 -27.15625 3.695312 -27.367188 3.3125 -27.796875 C 2.925781 -28.234375 2.734375 -28.769531 2.734375 -29.40625 Z M 2.734375 -29.40625 " />
      </g>
    </g>
  </g>
  <g fill="rgb(100%, 100%, 100%)" fill-opacity="1">
    <g transform="translate(316.493645, 202.504249)">
      <g>
        <path d="M 1.953125 -11.84375 C 1.953125 -14.113281 2.398438 -16.160156 3.296875 -17.984375 C 4.191406 -19.804688 5.4375 -21.207031 7.03125 -22.1875 C 8.632812 -23.175781 10.457031 -23.671875 12.5 -23.671875 C 15.664062 -23.671875 18.226562 -22.578125 20.1875 -20.390625 C 22.144531 -18.203125 23.125 -15.285156 23.125 -11.640625 L 23.125 -11.359375 C 23.125 -9.097656 22.6875 -7.066406 21.8125 -5.265625 C 20.945312 -3.472656 19.707031 -2.070312 18.09375 -1.0625 C 16.488281 -0.0625 14.640625 0.4375 12.546875 0.4375 C 9.398438 0.4375 6.847656 -0.65625 4.890625 -2.84375 C 2.929688 -5.039062 1.953125 -7.945312 1.953125 -11.5625 Z M 5.953125 -11.359375 C 5.953125 -8.785156 6.550781 -6.71875 7.75 -5.15625 C 8.945312 -3.59375 10.546875 -2.8125 12.546875 -2.8125 C 14.566406 -2.8125 16.171875 -3.601562 17.359375 -5.1875 C 18.546875 -6.769531 19.140625 -8.988281 19.140625 -11.84375 C 19.140625 -14.382812 18.535156 -16.445312 17.328125 -18.03125 C 16.117188 -19.613281 14.507812 -20.40625 12.5 -20.40625 C 10.539062 -20.40625 8.957031 -19.625 7.75 -18.0625 C 6.550781 -16.507812 5.953125 -14.273438 5.953125 -11.359375 Z M 5.953125 -11.359375 " />
      </g>
    </g>
  </g>
  <g fill="rgb(100%, 34.118652%, 69.799805%)" fill-opacity="1">
    <g transform="translate(343.553265, 202.504249)">
      <g>
        <path d="M 3.09375 -2.078125 C 3.09375 -2.765625 3.296875 -3.335938 3.703125 -3.796875 C 4.109375 -4.253906 4.71875 -4.484375 5.53125 -4.484375 C 6.351562 -4.484375 6.972656 -4.253906 7.390625 -3.796875 C 7.816406 -3.335938 8.03125 -2.765625 8.03125 -2.078125 C 8.03125 -1.421875 7.816406 -0.867188 7.390625 -0.421875 C 6.972656 0.015625 6.351562 0.234375 5.53125 0.234375 C 4.71875 0.234375 4.109375 0.015625 3.703125 -0.421875 C 3.296875 -0.867188 3.09375 -1.421875 3.09375 -2.078125 Z M 3.09375 -2.078125 " />
      </g>
    </g>
  </g>
  <g fill="rgb(100%, 34.118652%, 69.799805%)" fill-opacity="1">
    <g transform="translate(25.350069, 202.504249)">
      <g>
        <path d="M 7.40625 -13.28125 L 19.65625 -8.953125 L 19.65625 -2.9375 L 1.15625 -10.78125 L 1.15625 -15.859375 L 19.65625 -23.703125 L 19.65625 -17.6875 Z M 7.40625 -13.28125 " />
      </g>
    </g>
  </g>
  <g fill="rgb(100%, 34.118652%, 69.799805%)" fill-opacity="1">
    <g transform="translate(47.732811, 202.504249)">
      <g>
        <path d="M 4.34375 2.6875 L -0.28125 2.6875 L 11.234375 -31.28125 L 15.859375 -31.28125 Z M 4.34375 2.6875 " />
      </g>
    </g>
  </g>
  <g fill="rgb(100%, 34.118652%, 69.799805%)" fill-opacity="1">
    <g transform="translate(64.165439, 202.504249)">
      <g>
        <path d="M 15.0625 -13.34375 L 2.578125 -17.703125 L 2.578125 -23.671875 L 21.296875 -15.828125 L 21.296875 -10.78125 L 2.578125 -2.921875 L 2.578125 -8.921875 Z M 15.0625 -13.34375 " />
      </g>
    </g>
  </g>
</svg>